<?xml version="1.0" standalone="no"?>
<!DOCTYPE svg PUBLIC "-//W3C//DTD SVG 20010904//EN"
 "http://www.w3.org/TR/2001/REC-SVG-20010904/DTD/svg10.dtd">
<svg version="1.0" xmlns="http://www.w3.org/2000/svg"
 width="500.000000pt" height="500.000000pt" viewBox="0 0 500.000000 500.000000"
 preserveAspectRatio="xMidYMid meet">

<g transform="translate(0.000000,500.000000) scale(0.100000,-0.100000)"
fill="#000000" stroke="none">
<path d="M1909 3234 c-64 -19 -125 -82 -144 -147 -13 -42 -15 -138 -15 -587 0
-608 0 -608 71 -679 73 -72 70 -72 700 -69 521 3 556 4 592 22 49 24 89 64
113 113 18 36 19 68 19 608 0 444 -3 578 -13 607 -20 55 -85 115 -145 133 -73
22 -1108 21 -1178 -1z"/>
</g>
</svg>
